<svg width="234" height="234" viewBox="0 0 234 234" fill="none" xmlns="http://www.w3.org/2000/svg">
<circle cx="117.5" cy="116.5" r="115.5" stroke="white" stroke-width="2"/>
<path d="M51.9 154.5C47.4 154.5 43.6167 153.8 40.55 152.4C37.5167 151 35.0167 149.1 33.05 146.7L27.6 154H27.4V133.5H27.6C28.1667 136.467 29.0333 139.217 30.2 141.75C31.3667 144.25 32.8833 146.433 34.75 148.3C36.65 150.167 38.9333 151.617 41.6 152.65C44.3 153.683 47.4667 154.2 51.1 154.2C54.6333 154.2 57.7333 153.567 60.4 152.3C63.0667 151.033 65.15 149.167 66.65 146.7C68.15 144.2 68.9 141.133 68.9 137.5C68.9 134.567 68.1667 132.083 66.7 130.05C65.2333 128.017 63.3 126.25 60.9 124.75C58.5 123.25 55.85 121.85 52.95 120.55C50.0833 119.25 47.2 117.9 44.3 116.5C41.4333 115.1 38.8 113.483 36.4 111.65C34 109.783 32.0667 107.55 30.6 104.95C29.1333 102.35 28.4 99.2 28.4 95.5C28.4 91.8333 29.35 88.6167 31.25 85.85C33.1833 83.05 35.7167 80.8833 38.85 79.35C41.9833 77.7833 45.4 77 49.1 77C52.5 77 55.5667 77.5333 58.3 78.6C61.0333 79.6667 63.3667 81.3333 65.3 83.6L70.7 77H70.9V97.5H70.7C70.0333 92.8667 68.75 89.0667 66.85 86.1C64.9833 83.1333 62.6167 80.95 59.75 79.55C56.8833 78.1167 53.6667 77.4 50.1 77.4C45.3 77.4 41.65 78.6 39.15 81C36.65 83.3667 35.4 86.5333 35.4 90.5C35.4 93.1333 36.1167 95.3833 37.55 97.25C38.9833 99.0833 40.8667 100.717 43.2 102.15C45.5333 103.55 48.1 104.9 50.9 106.2C53.7333 107.467 56.55 108.85 59.35 110.35C62.1833 111.817 64.7667 113.55 67.1 115.55C69.4333 117.55 71.3167 119.967 72.75 122.8C74.1833 125.6 74.9 129 74.9 133C74.9 137.333 73.9667 141.117 72.1 144.35C70.2333 147.55 67.5667 150.05 64.1 151.85C60.6667 153.617 56.6 154.5 51.9 154.5ZM110.062 78C116.095 78 121.028 78.85 124.862 80.55C128.695 82.25 131.528 84.6667 133.362 87.8C135.195 90.9333 136.112 94.6667 136.112 99C136.112 103.333 135.195 107 133.362 110C131.528 112.967 128.695 115.233 124.862 116.8C121.028 118.333 116.095 119.1 110.062 119.1H99.1117V152.8H108.062V153H80.6117V152.8H89.5617V78.2H80.6117V78H110.062ZM99.1117 118.9H110.062C112.462 118.9 114.595 118.3 116.462 117.1C118.328 115.867 119.895 114.267 121.162 112.3C122.428 110.3 123.395 108.15 124.062 105.85C124.728 103.517 125.062 101.233 125.062 99C125.062 96.7667 124.728 94.45 124.062 92.05C123.395 89.6167 122.428 87.35 121.162 85.25C119.895 83.15 118.328 81.45 116.462 80.15C114.595 78.85 112.462 78.2 110.062 78.2H99.1117V118.9ZM158.188 130.7C158.188 127.567 158.371 124.533 158.738 121.6C159.104 118.667 159.754 116.033 160.688 113.7C161.621 111.333 162.938 109.467 164.638 108.1C166.338 106.7 168.504 106 171.138 106C173.004 106 174.604 106.383 175.938 107.15C177.304 107.883 178.354 108.867 179.088 110.1C179.821 111.333 180.188 112.683 180.188 114.15C180.188 115.85 179.671 117.283 178.638 118.45C177.638 119.617 176.221 120.2 174.388 120.2C172.488 120.2 171.004 119.683 169.938 118.65C168.904 117.617 168.388 116.35 168.388 114.85C168.388 112.883 169.021 111.4 170.288 110.4C171.554 109.4 172.904 108.9 174.338 108.9C175.438 108.9 176.421 109.15 177.288 109.65C178.188 110.117 178.888 110.75 179.388 111.55C179.888 112.317 180.138 113.183 180.138 114.15H179.988C179.988 112.717 179.621 111.4 178.888 110.2C178.188 109 177.171 108.033 175.838 107.3C174.538 106.567 172.971 106.2 171.138 106.2C168.504 106.2 166.354 106.9 164.688 108.3C163.021 109.7 161.721 111.583 160.788 113.95C159.888 116.283 159.254 118.917 158.888 121.85C158.554 124.75 158.388 127.7 158.388 130.7H158.188ZM158.388 107V152.8H164.388V153H143.388V152.8H149.438V107.2H143.388V107H158.388ZM187.12 179C184.42 179 182.17 178.483 180.37 177.45C178.537 176.417 177.154 175.067 176.22 173.4C175.287 171.733 174.82 169.967 174.82 168.1C174.82 166.033 175.387 164.483 176.52 163.45C177.654 162.417 178.987 161.9 180.52 161.9C181.354 161.9 182.187 162.067 183.02 162.4C183.887 162.767 184.604 163.333 185.17 164.1C185.77 164.9 186.07 165.967 186.07 167.3C186.07 168.567 185.504 169.783 184.37 170.95C183.27 172.15 181.887 172.75 180.22 172.75C179.254 172.75 178.37 172.567 177.57 172.2C176.77 171.833 176.137 171.3 175.67 170.6C175.17 169.933 174.92 169.1 174.92 168.1H175.02C175.02 170 175.487 171.75 176.42 173.35C177.354 174.983 178.687 176.283 180.42 177.25C182.12 178.217 184.17 178.7 186.57 178.7C188.837 178.7 190.487 177.867 191.52 176.2C192.587 174.533 193.27 172.333 193.57 169.6C193.87 166.867 193.987 163.867 193.92 160.6C193.854 157.367 193.82 154.167 193.82 151V107.2H185.77V107H202.77V154.15C202.77 157.417 202.554 160.533 202.12 163.5C201.72 166.5 200.954 169.15 199.82 171.45C198.687 173.783 197.104 175.617 195.07 176.95C193.037 178.317 190.387 179 187.12 179ZM197.52 89.05C195.887 89.05 194.47 88.45 193.27 87.25C192.104 86.05 191.52 84.6333 191.52 83C191.52 81.3333 192.104 79.9167 193.27 78.75C194.47 77.5833 195.887 77 197.52 77C199.187 77 200.587 77.5833 201.72 78.75C202.887 79.9167 203.47 81.3333 203.47 83C203.47 84.6333 202.887 86.05 201.72 87.25C200.587 88.45 199.187 89.05 197.52 89.05Z" fill="white"/>
</svg>
